<svg width="408" height="53" viewBox="0 0 408 53" fill="none" xmlns="http://www.w3.org/2000/svg">
<path d="M20.512 39L9.184 24.12V39H0.976V5.304H9.184V20.088L20.416 5.304H30.064L17.008 21.816L30.544 39H20.512ZM46.6368 39.384C44.0128 39.384 41.6448 38.824 39.5328 37.704C37.4528 36.584 35.8048 34.984 34.5888 32.904C33.4048 30.824 32.8128 28.392 32.8128 25.608C32.8128 22.856 33.4208 20.44 34.6367 18.36C35.8528 16.248 37.5168 14.632 39.6288 13.512C41.7408 12.392 44.1088 11.832 46.7328 11.832C49.3568 11.832 51.7248 12.392 53.8368 13.512C55.9488 14.632 57.6128 16.248 58.8288 18.36C60.0448 20.44 60.6528 22.856 60.6528 25.608C60.6528 28.36 60.0288 30.792 58.7808 32.904C57.5648 34.984 55.8848 36.584 53.7408 37.704C51.6288 38.824 49.2608 39.384 46.6368 39.384ZM46.6368 32.28C48.2048 32.28 49.5328 31.704 50.6208 30.552C51.7408 29.4 52.3008 27.752 52.3008 25.608C52.3008 23.464 51.7568 21.816 50.6688 20.664C49.6128 19.512 48.3008 18.936 46.7328 18.936C45.1328 18.936 43.8048 19.512 42.7488 20.664C41.6928 21.784 41.1648 23.432 41.1648 25.608C41.1648 27.752 41.6768 29.4 42.7008 30.552C43.7568 31.704 45.0688 32.28 46.6368 32.28ZM81.3273 11.928C84.4633 11.928 86.9593 12.952 88.8153 15C90.7033 17.016 91.6473 19.8 91.6473 23.352V39H83.4873V24.456C83.4873 22.664 83.0233 21.272 82.0953 20.28C81.1673 19.288 79.9193 18.792 78.3513 18.792C76.7833 18.792 75.5353 19.288 74.6073 20.28C73.6793 21.272 73.2153 22.664 73.2153 24.456V39H65.0073V12.216H73.2153V15.768C74.0473 14.584 75.1673 13.656 76.5753 12.984C77.9833 12.28 79.5673 11.928 81.3273 11.928ZM108.247 39.384C105.911 39.384 103.831 38.984 102.007 38.184C100.183 37.384 98.743 36.296 97.687 34.92C96.631 33.512 96.039 31.944 95.911 30.216H104.023C104.119 31.144 104.551 31.896 105.319 32.472C106.087 33.048 107.031 33.336 108.151 33.336C109.175 33.336 109.959 33.144 110.503 32.76C111.079 32.344 111.367 31.816 111.367 31.176C111.367 30.408 110.967 29.848 110.167 29.496C109.367 29.112 108.071 28.696 106.279 28.248C104.359 27.8 102.759 27.336 101.479 26.856C100.199 26.344 99.095 25.56 98.167 24.504C97.239 23.416 96.775 21.96 96.775 20.136C96.775 18.6 97.191 17.208 98.023 15.96C98.887 14.68 100.135 13.672 101.767 12.936C103.431 12.2 105.399 11.832 107.671 11.832C111.031 11.832 113.671 12.664 115.591 14.328C117.543 15.992 118.663 18.2 118.951 20.952H111.367C111.239 20.024 110.823 19.288 110.119 18.744C109.447 18.2 108.551 17.928 107.431 17.928C106.471 17.928 105.735 18.12 105.223 18.504C104.711 18.856 104.455 19.352 104.455 19.992C104.455 20.76 104.855 21.336 105.655 21.72C106.487 22.104 107.767 22.488 109.495 22.872C111.479 23.384 113.095 23.896 114.343 24.408C115.591 24.888 116.679 25.688 117.607 26.808C118.567 27.896 119.063 29.368 119.095 31.224C119.095 32.792 118.647 34.2 117.751 35.448C116.887 36.664 115.623 37.624 113.959 38.328C112.327 39.032 110.423 39.384 108.247 39.384ZM149.365 25.176C149.365 25.944 149.317 26.744 149.221 27.576H130.645C130.773 29.24 131.301 30.52 132.229 31.416C133.189 32.28 134.357 32.712 135.733 32.712C137.781 32.712 139.205 31.848 140.005 30.12H148.741C148.293 31.88 147.477 33.464 146.293 34.872C145.141 36.28 143.685 37.384 141.925 38.184C140.165 38.984 138.197 39.384 136.021 39.384C133.397 39.384 131.061 38.824 129.013 37.704C126.965 36.584 125.365 34.984 124.213 32.904C123.061 30.824 122.485 28.392 122.485 25.608C122.485 22.824 123.045 20.392 124.165 18.312C125.317 16.232 126.917 14.632 128.965 13.512C131.013 12.392 133.365 11.832 136.021 11.832C138.613 11.832 140.917 12.376 142.933 13.464C144.949 14.552 146.517 16.104 147.637 18.12C148.789 20.136 149.365 22.488 149.365 25.176ZM140.965 23.016C140.965 21.608 140.485 20.488 139.525 19.656C138.565 18.824 137.365 18.408 135.925 18.408C134.549 18.408 133.381 18.808 132.421 19.608C131.493 20.408 130.917 21.544 130.693 23.016H140.965ZM161.903 3.48V39H153.695V3.48H161.903ZM171.979 9.432C170.539 9.432 169.355 9.016 168.427 8.184C167.531 7.32 167.083 6.264 167.083 5.016C167.083 3.736 167.531 2.68 168.427 1.848C169.355 0.983997 170.539 0.551997 171.979 0.551997C173.387 0.551997 174.539 0.983997 175.435 1.848C176.363 2.68 176.827 3.736 176.827 5.016C176.827 6.264 176.363 7.32 175.435 8.184C174.539 9.016 173.387 9.432 171.979 9.432ZM176.059 12.216V39H167.851V12.216H176.059ZM198.327 11.928C201.463 11.928 203.959 12.952 205.815 15C207.703 17.016 208.647 19.8 208.647 23.352V39H200.487V24.456C200.487 22.664 200.023 21.272 199.095 20.28C198.167 19.288 196.919 18.792 195.351 18.792C193.783 18.792 192.535 19.288 191.607 20.28C190.679 21.272 190.215 22.664 190.215 24.456V39H182.007V12.216H190.215V15.768C191.047 14.584 192.167 13.656 193.575 12.984C194.983 12.28 196.567 11.928 198.327 11.928ZM224.527 11.832C226.415 11.832 228.063 12.216 229.471 12.984C230.911 13.752 232.015 14.76 232.783 16.008V12.216H240.991V38.952C240.991 41.416 240.495 43.64 239.503 45.624C238.543 47.64 237.055 49.24 235.039 50.424C233.055 51.608 230.575 52.2 227.599 52.2C223.631 52.2 220.415 51.256 217.951 49.368C215.487 47.512 214.079 44.984 213.727 41.784H221.839C222.095 42.808 222.703 43.608 223.663 44.184C224.623 44.792 225.807 45.096 227.215 45.096C228.911 45.096 230.255 44.6 231.247 43.608C232.271 42.648 232.783 41.096 232.783 38.952V35.16C231.983 36.408 230.879 37.432 229.471 38.232C228.063 39 226.415 39.384 224.527 39.384C222.319 39.384 220.319 38.824 218.527 37.704C216.735 36.552 215.311 34.936 214.255 32.856C213.231 30.744 212.719 28.312 212.719 25.56C212.719 22.808 213.231 20.392 214.255 18.312C215.311 16.232 216.735 14.632 218.527 13.512C220.319 12.392 222.319 11.832 224.527 11.832ZM232.783 25.608C232.783 23.56 232.207 21.944 231.055 20.76C229.935 19.576 228.559 18.984 226.927 18.984C225.295 18.984 223.903 19.576 222.751 20.76C221.631 21.912 221.071 23.512 221.071 25.56C221.071 27.608 221.631 29.24 222.751 30.456C223.903 31.64 225.295 32.232 226.927 32.232C228.559 32.232 229.935 31.64 231.055 30.456C232.207 29.272 232.783 27.656 232.783 25.608ZM259.553 5.304C263.105 5.304 266.209 6.008 268.865 7.416C271.521 8.824 273.569 10.808 275.009 13.368C276.481 15.896 277.217 18.824 277.217 22.152C277.217 25.448 276.481 28.376 275.009 30.936C273.569 33.496 271.505 35.48 268.817 36.888C266.161 38.296 263.073 39 259.553 39H246.929V5.304H259.553ZM259.025 31.896C262.129 31.896 264.545 31.048 266.273 29.352C268.001 27.656 268.865 25.256 268.865 22.152C268.865 19.048 268.001 16.632 266.273 14.904C264.545 13.176 262.129 12.312 259.025 12.312H255.137V31.896H259.025ZM293.996 39.384C291.372 39.384 289.004 38.824 286.892 37.704C284.812 36.584 283.164 34.984 281.948 32.904C280.764 30.824 280.172 28.392 280.172 25.608C280.172 22.856 280.78 20.44 281.996 18.36C283.212 16.248 284.876 14.632 286.988 13.512C289.1 12.392 291.468 11.832 294.092 11.832C296.716 11.832 299.084 12.392 301.196 13.512C303.308 14.632 304.972 16.248 306.188 18.36C307.404 20.44 308.012 22.856 308.012 25.608C308.012 28.36 307.388 30.792 306.14 32.904C304.924 34.984 303.244 36.584 301.1 37.704C298.988 38.824 296.62 39.384 293.996 39.384ZM293.996 32.28C295.564 32.28 296.892 31.704 297.98 30.552C299.1 29.4 299.66 27.752 299.66 25.608C299.66 23.464 299.116 21.816 298.028 20.664C296.972 19.512 295.66 18.936 294.092 18.936C292.492 18.936 291.164 19.512 290.108 20.664C289.052 21.784 288.524 23.432 288.524 25.608C288.524 27.752 289.036 29.4 290.06 30.552C291.116 31.704 292.428 32.28 293.996 32.28ZM328.735 39L320.575 27.768V39H312.367V3.48H320.575V23.112L328.687 12.216H338.815L327.679 25.656L338.911 39H328.735ZM356.967 32.04V39H352.791C349.815 39 347.495 38.28 345.831 36.84C344.167 35.368 343.335 32.984 343.335 29.688V19.032H340.071V12.216H343.335V5.688H351.543V12.216H356.919V19.032H351.543V29.784C351.543 30.584 351.735 31.16 352.119 31.512C352.503 31.864 353.143 32.04 354.039 32.04H356.967ZM386.786 25.176C386.786 25.944 386.739 26.744 386.643 27.576H368.067C368.195 29.24 368.723 30.52 369.651 31.416C370.611 32.28 371.779 32.712 373.155 32.712C375.203 32.712 376.627 31.848 377.427 30.12H386.163C385.715 31.88 384.899 33.464 383.715 34.872C382.563 36.28 381.107 37.384 379.347 38.184C377.587 38.984 375.619 39.384 373.443 39.384C370.819 39.384 368.483 38.824 366.435 37.704C364.387 36.584 362.787 34.984 361.635 32.904C360.483 30.824 359.907 28.392 359.907 25.608C359.907 22.824 360.467 20.392 361.587 18.312C362.739 16.232 364.339 14.632 366.387 13.512C368.435 12.392 370.787 11.832 373.443 11.832C376.035 11.832 378.339 12.376 380.355 13.464C382.371 14.552 383.939 16.104 385.059 18.12C386.211 20.136 386.786 22.488 386.786 25.176ZM378.387 23.016C378.387 21.608 377.907 20.488 376.947 19.656C375.987 18.824 374.787 18.408 373.347 18.408C371.971 18.408 370.803 18.808 369.843 19.608C368.915 20.408 368.339 21.544 368.115 23.016H378.387ZM399.325 16.68C400.285 15.208 401.485 14.056 402.925 13.224C404.365 12.36 405.965 11.928 407.725 11.928V20.616H405.469C403.421 20.616 401.885 21.064 400.861 21.96C399.837 22.824 399.325 24.36 399.325 26.568V39H391.117V12.216H399.325V16.68Z" fill="#2993D5"/>
</svg>
